<?xml version="1.0" encoding="utf-8"?>
<!-- Generator: Adobe Illustrator 23.0.3, SVG Export Plug-In . SVG Version: 6.00 Build 0)  -->
<svg version="1.1" id="圖層_1" xmlns="http://www.w3.org/2000/svg" xmlns:xlink="http://www.w3.org/1999/xlink" x="0px" y="0px"
	 viewBox="0 0 99.2 99.2" style="enable-background:new 0 0 99.2 99.2;" xml:space="preserve">
<style type="text/css">
	.st0{fill:#231815;}
	.st1{fill:#FFFFFF;}
	.st2{enable-background:new    ;}
</style>
<title>hurley furniture</title>
<path class="st0" d="M51.8,1L57,0.2c3.9-0.6,7.9,0.4,10.9,2.9L72,6.4c1.2,0.9,2.5,1.7,3.9,2.2l4.9,1.9c3.7,1.4,6.6,4.3,8,8l1.8,4.9
	c0.5,1.4,1.3,2.7,2.2,3.9l3.3,4.1c2.4,3,3.5,7,2.8,10.8l-0.9,5.2c-0.2,1.5-0.2,3,0,4.5L99,57c0.7,3.9-0.4,7.9-2.9,10.9L92.8,72
	c-0.9,1.2-1.7,2.5-2.2,3.9l-1.8,4.9c-1.4,3.7-4.3,6.6-8,8l-4.9,1.8c-1.4,0.5-2.6,1.3-3.8,2.2l-4.1,3.3c-3,2.5-7,3.5-10.9,2.9
	l-5.2-0.9c-1.5-0.2-3-0.2-4.5,0L42.2,99c-3.9,0.6-7.8-0.4-10.9-2.9l-4.1-3.3c-1.2-0.9-2.5-1.7-3.9-2.2l-4.9-1.8
	c-3.7-1.4-6.6-4.3-8-8l-1.8-4.9c-0.5-1.4-1.3-2.7-2.2-3.8l-3.3-4.1c-2.5-3-3.6-7-2.9-10.9L1,51.8c0.2-1.5,0.2-3,0-4.5l-0.8-5.2
	c-0.6-3.9,0.4-7.8,2.9-10.9l3.3-4.1c0.9-1.2,1.7-2.5,2.2-3.9l1.9-4.9c1.4-3.7,4.3-6.6,8-8l4.9-1.8c1.4-0.5,2.7-1.3,3.9-2.2l4.1-3.3
	c3-2.5,7-3.6,10.9-2.9L47.4,1C48.9,1.2,50.4,1.2,51.8,1z"/>
<polygon class="st1" points="64.6,49.9 58,35.1 41.2,35.1 34.7,49.9 "/>
<path class="st1" d="M57.7,58.1c0,4.4-3.6,8-8,8s-8.1-3.6-8.1-8c0-4.5,8-13,8-13S57.7,53.6,57.7,58.1z"/>
<path class="st0" d="M53.7,49.9c-1.3-1.7-2.6-3.3-4-4.8c-1.4,1.5-2.7,3.2-4,4.8L53.7,49.9z"/>
<g class="st2">
	<path class="st1" d="M24.9,20l5.7,5.6l-1,1.1l-2.4-2.4l-2.9,2.9l2.4,2.4l-1,1.1l-5.7-5.6l1-1.1l2.3,2.3l2.9-2.9l-2.3-2.3L24.9,20z"
		/>
</g>
<g class="st2">
	<path class="st1" d="M34.1,22.4c-0.8-0.3-1.5-1-2-2l-1.9-4.1l1.4-0.6l1.9,4.1c0.7,1.4,1.6,1.9,2.8,1.3c1.2-0.6,1.5-1.6,0.9-3
		l-1.9-4.1l1.3-0.6l1.9,4.1c0.5,1.1,0.6,2,0.3,2.8c-0.3,0.8-1,1.5-2,1.9C35.8,22.7,34.9,22.7,34.1,22.4z"/>
</g>
<g class="st2">
	<path class="st1" d="M48.8,19.2L46.9,17c-0.1,0-0.2,0-0.3,0l-1.8,0.2l0.2,2.3l-1.5,0.1l-0.8-8l3.3-0.3c0.7-0.1,1.3,0,1.8,0.2
		c0.5,0.2,1,0.5,1.3,0.9c0.3,0.4,0.5,0.9,0.6,1.5c0.1,0.6,0,1.1-0.3,1.6c-0.3,0.5-0.6,0.8-1.2,1.1l2.1,2.4L48.8,19.2z M47.6,12.9
		c-0.4-0.2-0.9-0.3-1.5-0.3l-1.7,0.2l0.3,3.2l1.7-0.2c0.6-0.1,1.1-0.2,1.4-0.6c0.3-0.3,0.4-0.7,0.4-1.2S48,13.1,47.6,12.9z"/>
</g>
<g class="st2">
	<path class="st1" d="M55.3,11.6l1.5,0.3l-1.4,6.6l4.1,0.9l-0.3,1.2l-5.6-1.2L55.3,11.6z"/>
</g>
<g class="st2">
	<path class="st1" d="M67.7,23.5l-0.6,1.1l-5.3-2.9l3.9-7l5.1,2.8l-0.6,1.1l-3.8-2.1l-1,1.8l3.4,1.9l-0.6,1.1l-3.4-1.9l-1.1,1.9
		L67.7,23.5z"/>
</g>
<g class="st2">
	<path class="st1" d="M74.1,27.2l-2,2l-1-1.1l2-1.9l1.6-5.9l1.1,1.1l-1.2,4.4l4.5-1l1,1.1L74.1,27.2z"/>
</g>
<g class="st2">
	<path class="st1" d="M19.3,60.6L17,61.5l1.4,3.6l-1.2,0.5L15.9,62L13,63.1l-0.6-1.4l7.4-3l2.2,5.4l-1.2,0.5L19.3,60.6z"/>
</g>
<g class="st2">
	<path class="st1" d="M18.5,71.9c0.1-0.9,0.6-1.7,1.5-2.4l3.5-2.9l0.9,1.1L21,70.6c-1.2,1-1.4,2-0.5,3.1c0.9,1,1.9,1.1,3.1,0.1
		l3.4-2.8l0.9,1.1l-3.5,2.9c-0.9,0.7-1.8,1.1-2.6,1c-0.9-0.1-1.7-0.5-2.4-1.4C18.7,73.6,18.4,72.8,18.5,71.9z"/>
</g>
<g class="st2">
	<path class="st1" d="M30.8,83.8L30.7,81c-0.1,0-0.2-0.1-0.3-0.2l-1.5-1l-1.2,2L26.4,81l4.2-6.8l2.8,1.7c0.6,0.4,1,0.8,1.4,1.3
		c0.3,0.5,0.5,1,0.5,1.5c0,0.5-0.1,1-0.5,1.5c-0.3,0.5-0.7,0.9-1.2,1.1c-0.5,0.2-1,0.3-1.6,0.2l0.2,3.2L30.8,83.8z M33.7,78.2
		c-0.1-0.4-0.5-0.8-1-1.1l-1.5-0.9l-1.7,2.7l1.5,0.9c0.6,0.3,1,0.5,1.5,0.4c0.4-0.1,0.8-0.3,1.1-0.7C33.8,79,33.9,78.6,33.7,78.2z"
		/>
</g>
<g class="st2">
	<path class="st1" d="M46.1,80.6l-1.8,7.8l-1.2-0.3L40,81.8l-1.2,5.3l-1.4-0.3l1.8-7.8l1.2,0.3l3.1,6.3l1.2-5.3L46.1,80.6z"/>
</g>
<g class="st2">
	<path class="st1" d="M49.8,80.6l1.5,0l0.2,8l-1.5,0L49.8,80.6z"/>
</g>
<g class="st2">
	<path class="st1" d="M56.9,81l-2.6,0.7l-0.3-1.2l6.6-1.7L61,80l-2.6,0.7l1.7,6.5l-1.4,0.4L56.9,81z"/>
</g>
<g class="st2">
	<path class="st1" d="M67.4,83.5c-0.8-0.2-1.6-0.8-2.2-1.8l-2.4-3.8l1.3-0.8l2.3,3.8c0.8,1.3,1.8,1.7,3,0.9c1.1-0.7,1.3-1.7,0.5-3.1
		L67.6,75l1.2-0.8l2.4,3.8c0.6,1,0.8,1.9,0.6,2.8c-0.2,0.8-0.8,1.6-1.7,2.1C69.1,83.5,68.2,83.7,67.4,83.5z"/>
</g>
<g class="st2">
	<path class="st1" d="M80.9,72.9l-2.9-0.2c0,0.1-0.1,0.1-0.2,0.2l-1.2,1.4l1.8,1.5l-1,1.1l-6.2-5.1l2.1-2.5c0.4-0.5,0.9-0.9,1.4-1.2
		c0.5-0.2,1-0.3,1.5-0.3c0.5,0.1,1,0.3,1.4,0.7c0.5,0.4,0.8,0.8,0.9,1.3c0.1,0.5,0.1,1-0.1,1.6l3.2,0.3L80.9,72.9z M75.7,69.3
		c-0.4,0.1-0.8,0.4-1.3,0.9l-1.1,1.3l2.5,2l1.1-1.3c0.4-0.5,0.6-1,0.6-1.4c0-0.4-0.2-0.8-0.6-1.1C76.5,69.3,76.1,69.2,75.7,69.3z"/>
</g>
<g class="st2">
	<path class="st1" d="M85.7,61l1.1,0.5L84.6,67l-7.4-3l2.2-5.4l1.1,0.5l-1.7,4l1.9,0.8l1.5-3.6l1.1,0.5L82,64.3l2,0.8L85.7,61z"/>
</g>
<circle class="st1" cx="15.2" cy="42.9" r="1.8"/>
<circle class="st1" cx="84.1" cy="42.9" r="1.8"/>
</svg>
